<?xml version="1.0" standalone="no"?>
<!DOCTYPE svg PUBLIC "-//W3C//DTD SVG 20010904//EN"
 "http://www.w3.org/TR/2001/REC-SVG-20010904/DTD/svg10.dtd">
<svg version="1.0" xmlns="http://www.w3.org/2000/svg"
 width="192.000000pt" height="192.000000pt" viewBox="0 0 192.000000 192.000000"
 preserveAspectRatio="xMidYMid meet">
<metadata>
Created by potrace 1.14, written by Peter Selinger 2001-2017
</metadata>
<g transform="translate(0.000000,192.000000) scale(0.100000,-0.100000)"
fill="#000000" stroke="none">
<path d="M848 869 c-31 -4 -77 -18 -102 -30 -60 -28 -146 -114 -182 -183 -33
-63 2 -54 -327 -88 -198 -20 -250 -29 -237 -41 3 -3 35 -1 73 4 56 7 86 4 175
-15 59 -13 149 -32 201 -41 90 -17 94 -19 107 -51 22 -53 112 -137 184 -172
113 -55 217 -62 391 -25 l77 15 53 -39 c115 -85 328 -183 397 -183 38 0 82 35
82 65 0 33 -47 67 -145 104 -75 29 -205 107 -205 123 0 4 15 5 33 2 71 -13
463 -95 480 -100 11 -3 17 0 17 10 0 9 -3 16 -6 16 -4 0 -117 23 -251 50 -134
27 -246 50 -249 50 -3 0 6 15 20 33 29 39 46 96 46 158 l0 45 218 -32 c119
-17 219 -30 221 -28 12 12 -23 22 -109 33 -314 39 -338 43 -343 61 -4 17 12
18 224 25 130 4 229 12 229 17 0 5 -93 8 -232 7 l-231 -2 -23 45 c-26 52 -89
111 -139 132 -95 40 -303 56 -447 35z m306 -24 c202 -32 296 -134 296 -321 0
-75 -9 -100 -51 -149 l-33 -37 -18 24 c-14 18 -18 20 -18 6 -1 -59 102 -145
232 -193 93 -35 158 -72 158 -90 0 -23 -40 -38 -87 -32 -53 6 -257 104 -356
170 l-69 46 -61 -14 c-157 -36 -291 -28 -397 23 -65 32 -148 110 -175 167 -26
52 -25 127 3 188 25 57 111 150 170 184 71 42 247 54 406 28z m-624 -316 c0
-50 0 -51 -27 -45 -16 3 -82 15 -148 27 -66 12 -126 25 -134 29 -7 4 56 14
140 22 85 8 157 16 162 17 4 0 7 -22 7 -50z"/>
<path d="M2 269 c2 -7 94 -36 203 -66 110 -29 319 -88 464 -129 146 -41 279
-74 295 -72 21 2 -35 22 -174 61 -205 59 -780 217 -788 217 -2 0 -2 -5 0 -11z"/>
</g>
</svg>
